HIERARCHY
ROOT Hips
{
  OFFSET -43.3411 73.6987 0
  CHANNELS 6 Xposition Yposition Zposition Zrotation Xrotation Yrotation
  JOINT Bip01_Pelvis
  {
    OFFSET 0 0 0
    CHANNELS 6 Xposition Yposition Zposition Zrotation Xrotation Yrotation
    JOINT BN_Tail_01
    {
      OFFSET -18.6385 -9.591 -2.032e-005
      CHANNELS 6 Xposition Yposition Zposition Zrotation Xrotation Yrotation
      JOINT BN_Tail_02
      {
        OFFSET 20.9743 0 0
        CHANNELS 6 Xposition Yposition Zposition Zrotation Xrotation Yrotation
        JOINT BN_Tail_03
        {
          OFFSET 20.3015 0 0
          CHANNELS 6 Xposition Yposition Zposition Zrotation Xrotation Yrotation
          JOINT BN_Tail_04
          {
            OFFSET 21.6394 -9.91821e-005 0
            CHANNELS 6 Xposition Yposition Zposition Zrotation Xrotation Yrotation
            End Site
            {
              OFFSET 0 0 0
            }
          }
        }
      }
    }
    JOINT Bip01_Spine
    {
      OFFSET 22.1878 -0.659386 3.048e-005
      CHANNELS 6 Xposition Yposition Zposition Zrotation Xrotation Yrotation
      JOINT Bip01_R_Thigh
      {
        OFFSET -22.1873 0.677109 -17.1024
        CHANNELS 6 Xposition Yposition Zposition Zrotation Xrotation Yrotation
        JOINT Bip01_R_Calf
        {
          OFFSET 34.2647 0 0
          CHANNELS 6 Xposition Yposition Zposition Zrotation Xrotation Yrotation
          JOINT Bip01_R_HorseLink
          {
            OFFSET 20.4429 0 0
            CHANNELS 6 Xposition Yposition Zposition Zrotation Xrotation Yrotation
            JOINT Bip01_R_Foot
            {
              OFFSET 16.5673 0 0
              CHANNELS 6 Xposition Yposition Zposition Zrotation Xrotation Yrotation
              JOINT Bip01_R_Toe0
              {
                OFFSET 9.18784 6.94841 0
                CHANNELS 6 Xposition Yposition Zposition Zrotation Xrotation Yrotation
                JOINT Bip01_R_Toe0Nub
                {
                  OFFSET 1.01907 0 0
                  CHANNELS 6 Xposition Yposition Zposition Zrotation Xrotation Yrotation
                  End Site
                  {
                    OFFSET 0 0 0
                  }
                }
              }
            }
          }
        }
      }
      JOINT Bip01_L_Thigh
      {
        OFFSET -22.1873 0.67701 17.1024
        CHANNELS 6 Xposition Yposition Zposition Zrotation Xrotation Yrotation
        JOINT Bip01_L_Calf
        {
          OFFSET 34.2647 0 0
          CHANNELS 6 Xposition Yposition Zposition Zrotation Xrotation Yrotation
          JOINT Bip01_L_HorseLink
          {
            OFFSET 20.4429 0 0
            CHANNELS 6 Xposition Yposition Zposition Zrotation Xrotation Yrotation
            JOINT Bip01_L_Foot
            {
              OFFSET 16.5673 0 0
              CHANNELS 6 Xposition Yposition Zposition Zrotation Xrotation Yrotation
              JOINT Bip01_L_Toe0
              {
                OFFSET 9.18784 6.9484 1.14441e-005
                CHANNELS 6 Xposition Yposition Zposition Zrotation Xrotation Yrotation
                JOINT Bip01_L_Toe0Nub
                {
                  OFFSET 1.01907 0 0
                  CHANNELS 6 Xposition Yposition Zposition Zrotation Xrotation Yrotation
                  End Site
                  {
                    OFFSET 0 0 0
                  }
                }
              }
            }
          }
        }
      }
      JOINT Bip01_Spine1
      {
        OFFSET 39.3372 -0.0249863 0
        CHANNELS 6 Xposition Yposition Zposition Zrotation Xrotation Yrotation
        JOINT Bip01_Neck
        {
          OFFSET 34.2837 -15.5934 -4.318e-005
          CHANNELS 6 Xposition Yposition Zposition Zrotation Xrotation Yrotation
          JOINT Bip01_R_Clavicle
          {
            OFFSET -17.9452 -11.3131 -6.19287
            CHANNELS 6 Xposition Yposition Zposition Zrotation Xrotation Yrotation
            JOINT Bip01_R_UpperArm
            {
              OFFSET 17.4439 1.52588e-005 -2.28882e-005
              CHANNELS 6 Xposition Yposition Zposition Zrotation Xrotation Yrotation
              JOINT Bip01_R_Forearm
              {
                OFFSET 30.6251 1.14441e-005 0
                CHANNELS 6 Xposition Yposition Zposition Zrotation Xrotation Yrotation
                JOINT Bip01_R_Hand
                {
                  OFFSET 31.2039 0 0
                  CHANNELS 6 Xposition Yposition Zposition Zrotation Xrotation Yrotation
                  JOINT Bip01_R_Finger0
                  {
                    OFFSET 22.1039 0.255862 -0.37902
                    CHANNELS 6 Xposition Yposition Zposition Zrotation Xrotation Yrotation
                    JOINT Bip01_R_Finger0Nub
                    {
                      OFFSET 12.0552 0 0
                      CHANNELS 6 Xposition Yposition Zposition Zrotation Xrotation Yrotation
                      End Site
                      {
                        OFFSET 0 0 0
                      }
                    }
                  }
                }
              }
            }
          }
          JOINT Bip01_L_Clavicle
          {
            OFFSET -17.9452 -11.3132 6.19281
            CHANNELS 6 Xposition Yposition Zposition Zrotation Xrotation Yrotation
            JOINT Bip01_L_UpperArm
            {
              OFFSET 17.444 0 1.14441e-005
              CHANNELS 6 Xposition Yposition Zposition Zrotation Xrotation Yrotation
              JOINT Bip01_L_Forearm
              {
                OFFSET 30.6251 0 0
                CHANNELS 6 Xposition Yposition Zposition Zrotation Xrotation Yrotation
                JOINT Bip01_L_Hand
                {
                  OFFSET 31.204 0 0
                  CHANNELS 6 Xposition Yposition Zposition Zrotation Xrotation Yrotation
                  JOINT Bip01_L_Finger0
                  {
                    OFFSET 22.1039 0.255856 0.379024
                    CHANNELS 6 Xposition Yposition Zposition Zrotation Xrotation Yrotation
                    JOINT Bip01_L_Finger0Nub
                    {
                      OFFSET 12.0552 0 0
                      CHANNELS 6 Xposition Yposition Zposition Zrotation Xrotation Yrotation
                      End Site
                      {
                        OFFSET 0 0 0
                      }
                    }
                  }
                }
              }
            }
          }
          JOINT Bip01_Neck1
          {
            OFFSET 14.9359 -0.0106278 0
            CHANNELS 6 Xposition Yposition Zposition Zrotation Xrotation Yrotation
            JOINT Bip01_Head
            {
              OFFSET 14.3578 0.505501 0
              CHANNELS 6 Xposition Yposition Zposition Zrotation Xrotation Yrotation
              JOINT BN_Ear_L_01
              {
                OFFSET 3.76994 -2.35629 12.3444
                CHANNELS 6 Xposition Yposition Zposition Zrotation Xrotation Yrotation
                End Site
                {
                  OFFSET 0 0 0
                }
              }
              JOINT BN_Ear_R_01
              {
                OFFSET 3.76995 -2.35622 -12.3442
                CHANNELS 6 Xposition Yposition Zposition Zrotation Xrotation Yrotation
                End Site
                {
                  OFFSET 0 0 0
                }
              }
              JOINT BN_Mouth_01
              {
                OFFSET 11.8395 10.8645 1.27e-005
                CHANNELS 6 Xposition Yposition Zposition Zrotation Xrotation Yrotation
                JOINT BN_Tongue_01
                {
                  OFFSET 9.73752 3.21674 1.016e-005
                  CHANNELS 6 Xposition Yposition Zposition Zrotation Xrotation Yrotation
                  JOINT BN_Tongue_02
                  {
                    OFFSET 9.04304 0.053505 0
                    CHANNELS 6 Xposition Yposition Zposition Zrotation Xrotation Yrotation
                    End Site
                    {
                      OFFSET 0 0 0
                    }
                  }
                }
                JOINT BN_Beard_01
                {
                  OFFSET 6.93466 -0.751793 0
                  CHANNELS 6 Xposition Yposition Zposition Zrotation Xrotation Yrotation
                  JOINT BN_Beard_02
                  {
                    OFFSET 13.0965 1.52588e-005 0
                    CHANNELS 6 Xposition Yposition Zposition Zrotation Xrotation Yrotation
                    End Site
                    {
                      OFFSET 0 0 0
                    }
                  }
                }
              }
              JOINT Bip01_HeadNub
              {
                OFFSET 25.6158 0 0
                CHANNELS 6 Xposition Yposition Zposition Zrotation Xrotation Yrotation
                End Site
                {
                  OFFSET 0 0 0
                }
              }
            }
          }
        }
      }
    }
  }
}
MOTION
Frames:	4
Frame Time:	0.0333333
-43.3411 59.2349 1.37519 93.6159 -81.9825 -177.564 -3.8147e-006 4.76837e-007 -7.10543e-015 -92.9345 -22.518 -81.7382 -18.6385 -9.591 4.76837e-007 -50.0638 0.326874 179.942 20.9743 1.52588e-005 -0.000629425 22.7721 0.200624 9.55993 20.3015 7.6294e-006 -8.88179e-016 7.73176 2.53046 16.974 21.6394 1.42109e-014 2.86102e-006 10.2958 5.51743 30.7461 20.0428 -9.10545 2.8725 -15.6317 8.37453 -1.21638 -22.181 0.421295 -19.7851 -73.0628 -6.87497 170.725 34.2647 -3.8147e-006 1.90735e-006 -54.7395 6.04252e-006 8.13604e-006 20.4429 7.10543e-015 0 73.1282 3.16552e-007 1.13807e-006 16.5673 7.62939e-006 0 4.22714 6.55723 9.27848 9.18785 6.9484 3.8147e-006 91.3394 9.53404e-006 3.55693e-007 1.01908 0 0 -2.93421e-008 -3.13386e-009 -3.74281e-007 -21.4611 5.40493 14.0472 -122.858 14.4121 -171.058 34.2647 -3.33786e-006 -3.8147e-006 -106.707 -1.84837e-006 1.1204e-005 20.4429 1.90735e-006 -5.72205e-006 110.353 -3.31016e-006 -8.78704e-006 16.5673 3.8147e-006 7.62939e-006 -29.0248 -5.21231 -4.21418 9.18784 6.9484 0 89.9962 -1.35068e-006 -2.09896e-006 1.01907 1.19209e-007 3.8147e-006 -179.96 -5.39613e-005 4.39568e-005 39.331 -0.0241966 -0.000965118 -14.367 2.20452 5.49386 34.2892 -15.5918 4.1008e-005 30.6637 -0.373277 -6.42843 -21.7193 -1.57143 -3.79508 145.252 -33.9749 121.481 17.4439 7.6294e-006 -1.52588e-005 42.1489 6.81145 -101.78 30.6251 3.8147e-006 -3.81469e-006 -21.6572 8.33617e-006 2.9632e-006 31.204 9.53676e-007 1.90735e-006 -37.0164 82.3874 9.55205 22.1039 0.255854 -0.379031 -8.70662 9.6567 -42.2509 12.0552 3.81471e-006 -6.5565e-007 179.96 -1.08057e-005 -9.37409e-006 -20.3324 -1.65174 8.51244 154.602 43.675 -106.618 17.4439 1.52588e-005 3.8147e-006 39.6617 -48.7679 87.1648 30.6251 -5.72205e-006 -7.10542e-015 -63.1325 -8.3395e-006 -1.49914e-005 31.2039 3.8147e-006 3.81469e-006 -164.764 -73.5035 -163.118 22.1039 0.255853 0.379047 -10.7624 6.07328 10.0774 12.0552 -3.81471e-006 -3.81469e-006 1.12267e-007 1.01516e-005 -7.22464e-007 14.9354 -0.010643 0.000168324 1.28798 -0.903701 1.44067 14.3578 0.505471 -8.88179e-016 -21.0984 -3.53519 1.6727 3.7699 -2.35629 12.3444 -172.167 32.7141 -81.1406 3.76992 -2.35623 -12.3442 5.88484 29.4885 114.375 11.8394 10.8646 8.88179e-016 -177.002 -3.76322 178.789 9.73751 3.21677 9.53675e-007 -2.85748 1.27796e-007 6.1615e-009 2.55443 -1.1041 -0.153769 4.77834 -2.94618 -1.72235 6.93466 -0.751786 -1.77636e-015 -85.1773 -2.85033 -1.72699 13.0966 1.52588e-005 2.38419e-007 -7.89265 -1.63549 -12.1212 25.6158 0 4.44089e-016 -6.59263e-008 1.08709e-006 -6.07726e-008 
-49.7423 58.358 2.59752 94.8178 -81.9944 -176.474 -3.8147e-006 4.76837e-007 -1.42109e-014 -92.564 -18.4183 -76.0616 -18.6385 -9.591 4.76837e-007 -49.5941 0.327759 179.965 20.9743 1.52588e-005 -0.000629425 22.3414 0.130513 9.61666 20.3015 7.6294e-006 3.73035e-014 8.73013 2.81307 16.9589 21.6394 0 2.86102e-006 10.8223 5.82888 30.6795 20.2148 -7.61637 4.9819 -14.1034 10.9888 -6.41496 -23.8312 -1.79309 -19.5928 -82.3888 -4.59098 168.969 34.2647 -3.8147e-006 1.90735e-006 -76.1802 2.70748e-006 9.7787e-006 20.4429 0 1.42109e-014 85.116 1.92292e-007 1.23427e-006 16.5673 7.62939e-006 5.32907e-014 0.811094 6.58681 7.81573 9.18785 6.9484 3.81672e-006 91.3388 0.0150752 -0.000110496 1.01908 1.18128e-013 0 -2.93421e-008 -3.13386e-009 -3.74281e-007 -20.0797 4.71248 13.7469 -127.717 13.6441 -170.783 34.2647 -3.33786e-006 -3.8147e-006 -110.653 -2.49082e-006 1.09266e-005 20.4429 1.90735e-006 -5.72205e-006 105.628 -2.29004e-006 -8.92039e-006 16.5673 3.8147e-006 7.62939e-006 -29.2019 -5.71351 -4.20828 9.18784 6.9484 1.27052e-008 89.9981 0.00303482 0.00269799 1.01907 1.19209e-007 3.8147e-006 -179.96 -5.39606e-005 4.3957e-005 39.3349 -0.0241966 -0.000965118 -4.83985 0.278078 -5.12954 34.2892 -15.5918 4.10038e-005 34.4904 -0.233645 0.275869 -21.1832 -0.172608 -6.29478 145.529 -36.698 127.074 17.4439 7.6294e-006 -1.52588e-005 50.282 6.96191 -108.148 30.6251 3.8147e-006 -3.81469e-006 -31.4775 6.80234e-006 3.81749e-006 31.204 9.53676e-007 1.90735e-006 -10.4045 84.3464 -6.33594 22.1039 0.255854 -0.379031 -9.75644 9.82974 -40.4491 12.0552 3.81471e-006 -6.5565e-007 179.96 -1.08065e-005 -9.37272e-006 -21.2424 -0.222245 6.08779 145.382 40.6247 -98.5775 17.4439 1.52588e-005 3.8147e-006 15.0463 -62.0629 60.5244 30.6251 -5.72206e-006 9.23705e-014 -59.5125 -9.70083e-006 -1.53412e-005 31.2039 3.8147e-006 3.81469e-006 -153.652 -72.4414 -158.394 22.1039 0.255853 0.379047 -10.3652 6.22773 9.66182 12.0552 -3.81471e-006 -3.81469e-006 1.12267e-007 1.01516e-005 -7.22464e-007 14.9354 -0.010643 0.000168324 3.02356 -5.19648 4.43518 14.3578 0.505471 6.59679e-010 -9.79791 -5.68016 12.4339 3.7699 -2.35629 12.3444 -171.815 31.7237 -82.0891 3.76992 -2.35623 -12.3442 6.62373 27.4254 114.381 11.8394 10.8646 6.39998e-008 -177.235 -3.76153 178.772 9.73751 3.21677 9.87574e-007 -2.76024 -5.49664e-007 1.00415e-005 2.55472 -1.10317 -0.153559 5.04567 -2.95398 -1.70639 6.93466 -0.751786 -7.92242e-009 -64.8563 -7.70847 15.3468 13.0966 1.52588e-005 2.38419e-007 -6.39174 -1.92262 -12.1004 25.6158 1.42109e-014 1.28786e-014 -6.59263e-008 1.08709e-006 -6.07726e-008 
-56.17 57.4886 3.84462 95.9921 -82.0037 -175.407 -3.8147e-006 4.76837e-007 7.10543e-015 -92.0233 -10.0126 -65.3743 -18.6385 -9.591 4.76837e-007 -48.3853 0.332382 -179.989 20.9743 1.52588e-005 -0.000629425 21.2342 -0.0535143 9.74216 20.3015 7.6294e-006 1.56319e-013 11.2798 3.53586 16.8999 21.6394 -1.98952e-013 2.86102e-006 11.561 6.26258 30.584 19.7427 -4.50169 9.01825 -7.23707 12.496 -17.0233 -26.8855 -3.71599 -18.8844 -92.7464 -1.14797 167.461 34.2647 -3.8147e-006 1.90735e-006 -95.0222 -7.18976e-007 1.01126e-005 20.4429 -3.55271e-015 -3.55271e-015 93.4566 3.23089e-008 1.1076e-006 16.5673 7.62939e-006 1.10134e-013 -2.95648 7.15446 6.63666 9.18785 6.9484 3.82491e-006 91.3381 0.0298583 -0.000218496 1.01908 1.6831e-013 0 -2.93421e-008 -3.13386e-009 -3.74281e-007 -17.1177 3.66606 13.0254 -129.909 12.9393 -170.185 34.2647 -3.33786e-006 -3.8147e-006 -111.314 -2.82992e-006 1.05148e-005 20.4429 1.90735e-006 -5.72205e-006 100.147 -2.01982e-006 -8.90253e-006 16.5673 3.8147e-006 7.62939e-006 -29.5206 -5.93597 -5.31212 9.18784 6.9484 3.12099e-008 89.9999 0.00601315 0.00534365 1.01907 1.19209e-007 3.8147e-006 -179.96 -5.39596e-005 4.39571e-005 39.3388 -0.0241966 -0.000965118 4.30501 -3.42399 -15.504 34.2892 -15.5918 4.09488e-005 38.2667 0.395507 7.08655 -20.256 1.15814 -8.76744 146.24 -39.4182 133.004 17.4439 7.6294e-006 -1.52588e-005 58.2682 7.19684 -114.55 30.6251 3.8147e-006 -3.81469e-006 -40.0819 4.64973e-006 4.11567e-006 31.204 9.53676e-007 1.90735e-006 42.4572 84.9826 -47.7867 22.1039 0.255854 -0.379031 -10.8006 9.97242 -38.7171 12.0552 3.81471e-006 -6.5565e-007 179.96 -1.08076e-005 -9.37088e-006 -21.7839 1.24421 3.52175 137.118 36.6523 -91.4677 17.4439 1.52588e-005 3.8147e-006 -36.5896 -64.4441 7.97362 30.6251 -5.72206e-006 9.23705e-014 -49.049 -1.20963e-005 -1.34973e-005 31.2039 3.8147e-006 3.81469e-006 -148.384 -70.984 -156.765 22.1039 0.255853 0.379047 -9.88336 6.41263 9.15802 12.0552 -3.81471e-006 -3.81469e-006 1.12267e-007 1.01516e-005 -7.22464e-007 14.9354 -0.010643 0.000168324 5.03642 -9.47127 7.62907 14.3578 0.505471 1.02051e-008 4.58188 -1.50893 20.6588 3.7699 -2.35629 12.3444 -171.055 29.1094 -84.2854 3.76992 -2.35623 -12.3442 8.56728 22.3087 113.901 11.8394 10.8646 7.89198e-007 -177.802 -3.71541 178.737 9.73751 3.21677 1.18747e-006 -2.61173 -6.25207e-007 1.02035e-005 2.55654 -1.09717 -0.154493 5.30777 -2.96154 -1.69075 6.93466 -0.751786 -5.46393e-008 -44.8811 -7.27284 34.5963 13.0966 1.52588e-005 2.38419e-007 -2.55647 -2.65677 -12.0248 25.6158 -1.42109e-014 7.10543e-015 -6.59263e-008 1.08709e-006 -6.07726e-008 
-60.8334 56.7293 4.52003 97.1762 -82.0174 -174.329 -3.8147e-006 4.76837e-007 7.10543e-015 -91.7338 -3.08599 -58.3538 -18.6385 -9.591 4.76837e-007 -46.6463 0.333114 -179.932 20.9743 1.52588e-005 -0.000629425 19.6326 -0.320663 9.87458 20.3015 7.6294e-006 3.09086e-013 14.8896 4.56341 16.7547 21.6394 -2.55795e-013 2.86102e-006 12.8957 7.04405 30.4066 18.8425 -1.8514 11.5819 -1.24399 11.4274 -24.2382 -28.8736 -4.27185 -18.1493 -99.4918 1.82947 166.738 34.2647 -3.8147e-006 1.90735e-006 -106.165 -2.6695e-006 9.81163e-006 20.4429 0 1.42109e-014 99.2944 1.10118e-008 1.09042e-006 16.5673 7.62939e-006 1.45661e-013 -7.02354 8.13918 6.39132 9.18785 6.9484 3.83388e-006 91.3375 0.0447877 -0.000326572 1.01908 1.79856e-013 0 -2.93421e-008 -3.13386e-009 -3.74281e-007 -15.1113 2.50572 12.4236 -131.908 12.1584 -169.866 34.2647 -3.33786e-006 -3.8147e-006 -109.373 -1.16068e-005 7.15807e-006 20.4429 1.90735e-006 -5.72205e-006 93.9424 3.06573e-007 -9.29954e-006 16.5673 3.8147e-006 7.62939e-006 -29.8241 -6.17173 -6.02091 9.18784 6.9484 3.41269e-008 90.0018 0.00902126 0.00801762 1.01907 1.19209e-007 3.8147e-006 -179.96 -5.39587e-005 4.3957e-005 39.3413 -0.0241966 -0.000965118 9.52229 -5.92234 -21.0149 34.2892 -15.5918 4.09821e-005 41.2397 0.57819 10.7921 -19.5596 2.23654 -10.0576 145.586 -40.9832 136.25 17.4439 7.6294e-006 -1.52588e-005 62.9706 6.04365 -118.225 30.6251 3.8147e-006 -3.81469e-006 -46.944 -4.33923e-006 1.1088e-005 31.2039 9.53676e-007 1.90735e-006 75.7145 83.6004 -73.1583 22.1039 0.255854 -0.379031 -11.7535 10.0568 -36.5372 12.0552 3.81471e-006 -6.5565e-007 179.96 -1.08082e-005 -9.36993e-006 -21.8793 2.36215 2.10891 132.436 33.8074 -88.4948 17.4439 1.52588e-005 3.81469e-006 -70.4478 -57.9822 -23.6699 30.6251 -5.72206e-006 7.10542e-014 -34.7125 -2.03027e-005 -1.31332e-006 31.204 3.8147e-006 3.81469e-006 -153.14 -72.6359 -161.321 22.1039 0.255853 0.379047 -10.3893 6.23071 9.69828 12.0552 -3.81471e-006 -3.81469e-006 1.12267e-007 1.01516e-005 -7.22464e-007 14.9354 -0.010643 0.000168324 6.3089 -11.7798 9.72287 14.3578 0.505471 2.40243e-008 14.9489 3.65349 21.5992 3.7699 -2.35629 12.3444 -170.309 24.9725 -86.709 3.76992 -2.35623 -12.3442 11.2626 15.598 112.074 11.8394 10.8646 1.40313e-006 -178.564 -3.70966 178.687 9.73751 3.21677 1.35509e-006 -2.37672 -1.34641e-005 0.000325628 2.55952 -1.08648 -0.154927 5.57248 -2.9691 -1.67488 6.93466 -0.751786 -9.38144e-008 -33.4246 -4.8661 46.2142 13.0966 1.52588e-005 2.38419e-007 3.13352 -3.77567 -11.8786 25.6158 -5.68435e-014 -3.55271e-015 -6.59263e-008 1.08709e-006 -6.07726e-008 
